# xmcd
#
# Track frame offsets: 
#        150
#        19625
#        37130
#        53447
#        72267
#        86597
#        108247
#        128437
#        146970
#        164862
#        185292
#
# Disc length: 2638 seconds
#
# Revision: 4
# Processed by: cddbd v1.5.2PL0 Copyright (c) Steve Scherf et al.
# Submitted via: ExactAudioCopyFreeDBPlugin 1.0
#
DISCID=940a4c0b
DTITLE=Heikki Silvennoinen - Mature and Cool
DYEAR=1992
DGENRE=Blues
TTITLE0=Poor Little Girl
TTITLE1=I Will Wait For You
TTITLE2=Outside Woman Blues
TTITLE3=Let Me Fall
TTITLE4=Lucky
TTITLE5=You Run
TTITLE6=There's A Wall
TTITLE7=So Hard To Leave, So Hard To Stay
TTITLE8=Dead Man At Dawn
TTITLE9=Mature and Cool
TTITLE10=World Of Love
EXTD=
EXTT0=
EXTT1=
EXTT2=
EXTT3=
EXTT4=
EXTT5=
EXTT6=
EXTT7=
EXTT8=
EXTT9=
EXTT10=
PLAYORDER=
